<svg xmlns="http://www.w3.org/2000/svg" viewBox="0 0 626.215 209.116"><defs><style>.a{fill:#13a1d6;}.b{fill:#444;}.c{fill:none;}</style></defs><g transform="translate(-3261.185 -1124.128)"><path class="a" d="M300.4,40.8,289.6,97.3h56.9l10.8-56.5h24.3L355,180.8H330.7l11.8-61.9H285.4l-11.6,61.9H249.7L276.3,40.7h24.1Z" transform="translate(3261.2 1124)"/><path class="a" d="M383.3,180.8,402.4,79.6h24.3L407.4,180.8Zm23-128.6a14.452,14.452,0,0,1,14.5-14.8c7.5,0,12.9,5.4,12.9,13.1-.2,8.9-6.9,14.5-15,14.5-7.4.1-12.6-5.3-12.4-12.8Z" transform="translate(3261.2 1124)"/><path class="a" d="M465.8,79.6l6.4,50.3c1.2,12.1,2.5,19.7,2.9,26.4h.6c2.5-6.4,5.4-13.7,11-25.8l25.1-50.9h26.8L482.3,180.8H458L440.8,79.6h25Z" transform="translate(3261.2 1124)"/><path class="a" d="M613.5,175c-10,5.2-23.5,7.9-35.7,7.9-28.1,0-41.6-17-41.6-41.8,0-30.5,22.4-63.8,57.4-63.8,19.9,0,32.6,11.6,32.6,28.5,0,26-27.2,34.3-66.3,33.5-.4,3.5.4,10.4,2.7,14.3,3.9,6.9,11.2,10.4,20.8,10.4a59.987,59.987,0,0,0,27.8-6.6l2.3,17.6Zm-23-79.6c-15.2,0-25.1,13.5-28.1,25.8,24.9.4,40.9-3.1,40.9-15.2,0-6.6-5.2-10.6-12.8-10.6Z" transform="translate(3261.2 1124)"/><path class="a" d="M80.429,209.116h0L0,138.649,20.963,34.039,122.356,0l80.429,70.466-21.068,104.61L80.429,209.116ZM120.854,7.265h0L26.726,38.939,7.264,136.28l74.667,65.571,94.032-31.674L195.52,72.835,120.854,7.265Z" transform="translate(3261.185 1124.128)"/><path class="b" d="M135.3,51c-.2,0-.4.1-.6.1l-.1.1-13.4,4.5a2.1,2.1,0,0,0-1.3,1.3,2.775,2.775,0,0,0,0,1.8l3.5,7.1a13.627,13.627,0,0,0-6,6.1,16.328,16.328,0,0,0-1.8,10.9c-7.3-3.2-14.6-1.6-18.7,4.3a17.332,17.332,0,0,0-1.8,16.5c-6.3-2.9-13-3.6-17.9,2.8,3.6,6.2,13.4,18.8,37.1,21.9.6-5-.3-8.9-3.2-12.7,6.8,1.7,13.7.9,16.6-2.9,3.1-4,3.5-11.6-.3-18.7,8.4,2.1,20,.7,22.6-4.6,3.1-6.2-2.3-17.3-13-23.2a16.234,16.234,0,0,0-2.8-1.1l1.4-.7h8.5a2.306,2.306,0,0,0,2-1.1,2.354,2.354,0,0,0,0-2.3,2.306,2.306,0,0,0-2-1.1h-9.3l-.6.3-7,3.5L125,59l11-3.6a2.228,2.228,0,1,0-.7-4.4Zm-71.8.1c-8,0-10.7,4-10.7,13,0,10.3,7.1,30.3,33.9,34.3a20.419,20.419,0,0,1,1-8C63.6,87.7,61.8,66.7,61.8,64c0-3.1.9-4,2.6-4C75,60,92.9,82.3,92.9,82.3a14.014,14.014,0,0,1,7.5-4.9C91.1,63.2,71.1,51.1,63.5,51.1Zm24.9,0a9.086,9.086,0,0,0-7.1,3.1,97.99,97.99,0,0,1,8.9,5.9c4,0,10.2,2.6,16,16.5a37.231,37.231,0,0,1,4.9,1.8,40.641,40.641,0,0,1,1.8-5.3c-4.8-13-16.4-22-24.5-22Zm44.5,18a9.9,9.9,0,0,1,7.7,2.5c4.9,4.5,4.9,10.7,2.2,13.4s-9.3,1.8-12.8-1.8c-3.6-3.1-4.5-8.9-1.4-12A7.307,7.307,0,0,1,132.9,69.1ZM73.7,115c-.5.9-.4,1.8-.8,2.7a78.861,78.861,0,0,0-1.8,9.8c4.9,6.2,16.1,17,37.1,19.2a29.94,29.94,0,0,0,4.9-10.7c-8.6-.6-28.7-5.4-39.4-21ZM71,139.5c1,8.5,4.2,15.4,8.6,19a11.87,11.87,0,0,0,8.5,2.4h.3c4.5-1,8.8-3.3,13.4-7.5C93.4,152.9,80.4,149.3,71,139.5Z" transform="translate(3261.2 1124.001)"/><rect class="c" width="103.05" height="119.778" transform="translate(3312.607 1174.678)"/></g></svg>